<svg width="100" height="100" viewBox="0 0 100 100" fill="none" xmlns="http://www.w3.org/2000/svg">
<path d="M37.272 60.616H29V38.44H36.744V45.172H37.184C37.668 41.476 39.692 38 45.28 38C50.516 38 53.024 41.168 53.464 45.172H53.904C54.388 41.476 56.5 38 62.264 38C67.94 38 70.624 41.608 70.624 46.404V60.616H62.352V49.44C62.352 46.36 61.472 45.392 58.04 45.392C54.652 45.392 53.948 46.316 53.948 49.176V60.616H45.676V49.44C45.676 46.36 44.796 45.392 41.364 45.392C37.976 45.392 37.272 46.316 37.272 49.176V60.616Z" fill="white"/>
<path d="M100 100H0V0H100V100ZM17 83H83V17H17V83Z" fill="white"/>
</svg>
